<?xml version="1.0" encoding="UTF-8" standalone="no"?>
<!DOCTYPE svg PUBLIC "-//W3C//DTD SVG 1.1//EN"
 "http://www.w3.org/Graphics/SVG/1.1/DTD/svg11.dtd">
<!-- Generated by graphviz version 2.43.0 (0)
 -->
<!-- Title: %3 Pages: 1 -->
<svg width="282pt" height="307pt"
 viewBox="0.00 0.00 282.19 306.80" xmlns="http://www.w3.org/2000/svg" xmlns:xlink="http://www.w3.org/1999/xlink">
<g id="graph0" class="graph" transform="scale(1 1) rotate(0) translate(4 302.8)">
<title>%3</title>
<polygon fill="white" stroke="transparent" points="-4,4 -4,-302.8 278.19,-302.8 278.19,4 -4,4"/>
<!-- 137126594166544 -->
<g id="node1" class="node">
<title>137126594166544</title>
<ellipse fill="black" stroke="black" cx="239.1" cy="-297" rx="1.8" ry="1.8"/>
</g>
<!-- (0, 0) -->
<g id="node2" class="node">
<title>(0, 0)</title>
<ellipse fill="none" stroke="black" cx="239.1" cy="-241.2" rx="35.19" ry="18"/>
<text text-anchor="middle" x="239.1" y="-237.5" font-family="Times,serif" font-size="14.00">(0, 0)</text>
</g>
<!-- 137126594166544&#45;&gt;(0, 0) -->
<g id="edge1" class="edge">
<title>137126594166544&#45;&gt;(0, 0)</title>
<path fill="none" stroke="black" d="M239.1,-295.07C239.1,-291.84 239.1,-280.75 239.1,-269.55"/>
<polygon fill="black" stroke="black" points="242.6,-269.46 239.1,-259.46 235.6,-269.46 242.6,-269.46"/>
</g>
<!-- 137127707982992 -->
<g id="node7" class="node">
<title>137127707982992</title>
<ellipse fill="black" stroke="black" cx="153.1" cy="-185.4" rx="1.8" ry="1.8"/>
</g>
<!-- (0, 0)&#45;&gt;137127707982992 -->
<g id="edge5" class="edge">
<title>(0, 0)&#45;&gt;137127707982992</title>
<path fill="none" stroke="black" d="M217.4,-226.62C194.31,-212.18 160.26,-190.88 154.08,-187.01"/>
</g>
<!-- 137127705871360 -->
<g id="node11" class="node">
<title>137127705871360</title>
<ellipse fill="black" stroke="black" cx="181.1" cy="-73.8" rx="1.8" ry="1.8"/>
</g>
<!-- (0, 0)&#45;&gt;137127705871360 -->
<g id="edge11" class="edge">
<title>(0, 0)&#45;&gt;137127705871360</title>
<path fill="none" stroke="black" d="M241.1,-223.21C243.32,-197.43 244.38,-147.64 225.1,-111.6 214.57,-91.93 188.78,-78.51 182.49,-75.46"/>
</g>
<!-- 137126592759264 -->
<g id="node3" class="node">
<title>137126592759264</title>
<ellipse fill="black" stroke="black" cx="142.1" cy="-297" rx="1.8" ry="1.8"/>
</g>
<!-- (1, 1) -->
<g id="node4" class="node">
<title>(1, 1)</title>
<ellipse fill="none" stroke="black" cx="142.1" cy="-241.2" rx="35.19" ry="18"/>
<text text-anchor="middle" x="142.1" y="-237.5" font-family="Times,serif" font-size="14.00">(1, 1)</text>
</g>
<!-- 137126592759264&#45;&gt;(1, 1) -->
<g id="edge2" class="edge">
<title>137126592759264&#45;&gt;(1, 1)</title>
<path fill="none" stroke="black" d="M142.1,-295.07C142.1,-291.84 142.1,-280.75 142.1,-269.55"/>
<polygon fill="black" stroke="black" points="145.6,-269.46 142.1,-259.46 138.6,-269.46 145.6,-269.46"/>
</g>
<!-- (1, 1)&#45;&gt;137127707982992 -->
<g id="edge6" class="edge">
<title>(1, 1)&#45;&gt;137127707982992</title>
<path fill="none" stroke="black" d="M145.58,-223.18C148.4,-209.39 152.04,-191.57 152.91,-187.33"/>
</g>
<!-- 137127705782976 -->
<g id="node9" class="node">
<title>137127705782976</title>
<ellipse fill="black" stroke="black" cx="131.1" cy="-185.4" rx="1.8" ry="1.8"/>
</g>
<!-- (1, 1)&#45;&gt;137127705782976 -->
<g id="edge8" class="edge">
<title>(1, 1)&#45;&gt;137127705782976</title>
<path fill="none" stroke="black" d="M138.62,-223.18C135.8,-209.39 132.15,-191.57 131.29,-187.33"/>
</g>
<!-- 137126591013856 -->
<g id="node5" class="node">
<title>137126591013856</title>
<ellipse fill="black" stroke="black" cx="35.1" cy="-297" rx="1.8" ry="1.8"/>
</g>
<!-- (2, 2) -->
<g id="node6" class="node">
<title>(2, 2)</title>
<ellipse fill="none" stroke="black" cx="35.1" cy="-241.2" rx="35.19" ry="18"/>
<text text-anchor="middle" x="35.1" y="-237.5" font-family="Times,serif" font-size="14.00">(2, 2)</text>
</g>
<!-- 137126591013856&#45;&gt;(2, 2) -->
<g id="edge3" class="edge">
<title>137126591013856&#45;&gt;(2, 2)</title>
<path fill="none" stroke="black" d="M35.1,-295.07C35.1,-291.84 35.1,-280.75 35.1,-269.55"/>
<polygon fill="black" stroke="black" points="38.6,-269.46 35.1,-259.46 31.6,-269.46 38.6,-269.46"/>
</g>
<!-- (2, 2)&#45;&gt;137127705782976 -->
<g id="edge9" class="edge">
<title>(2, 2)&#45;&gt;137127705782976</title>
<path fill="none" stroke="black" d="M57.85,-227.45C83.57,-213.03 122.83,-191.03 129.96,-187.03"/>
</g>
<!-- 137127705871280 -->
<g id="node13" class="node">
<title>137127705871280</title>
<ellipse fill="black" stroke="black" cx="93.1" cy="-73.8" rx="1.8" ry="1.8"/>
</g>
<!-- (2, 2)&#45;&gt;137127705871280 -->
<g id="edge15" class="edge">
<title>(2, 2)&#45;&gt;137127705871280</title>
<path fill="none" stroke="black" d="M33.1,-223.21C30.87,-197.43 29.81,-147.64 49.1,-111.6 59.62,-91.93 85.42,-78.51 91.7,-75.46"/>
</g>
<!-- (0, 1) -->
<g id="node8" class="node">
<title>(0, 1)</title>
<ellipse fill="none" stroke="black" cx="93.1" cy="-129.6" rx="35.19" ry="18"/>
<text text-anchor="middle" x="93.1" y="-125.9" font-family="Times,serif" font-size="14.00">(0, 1)</text>
</g>
<!-- 137127707982992&#45;&gt;(0, 1) -->
<g id="edge4" class="edge">
<title>137127707982992&#45;&gt;(0, 1)</title>
<path fill="none" stroke="black" d="M152.06,-183.47C147.88,-179.72 131.89,-165.38 117.61,-152.58"/>
<polygon fill="black" stroke="black" points="119.73,-149.78 109.94,-145.71 115.05,-154.99 119.73,-149.78"/>
</g>
<!-- (0, 1)&#45;&gt;137127705871280 -->
<g id="edge14" class="edge">
<title>(0, 1)&#45;&gt;137127705871280</title>
<path fill="none" stroke="black" d="M93.1,-111.58C93.1,-97.79 93.1,-79.97 93.1,-75.73"/>
</g>
<!-- (1, 2) -->
<g id="node10" class="node">
<title>(1, 2)</title>
<ellipse fill="none" stroke="black" cx="181.1" cy="-129.6" rx="35.19" ry="18"/>
<text text-anchor="middle" x="181.1" y="-125.9" font-family="Times,serif" font-size="14.00">(1, 2)</text>
</g>
<!-- 137127705782976&#45;&gt;(1, 2) -->
<g id="edge7" class="edge">
<title>137127705782976&#45;&gt;(1, 2)</title>
<path fill="none" stroke="black" d="M131.96,-183.47C135.34,-179.84 147.96,-166.26 159.56,-153.77"/>
<polygon fill="black" stroke="black" points="162.32,-155.95 166.56,-146.24 157.19,-151.18 162.32,-155.95"/>
</g>
<!-- (1, 2)&#45;&gt;137127705871360 -->
<g id="edge12" class="edge">
<title>(1, 2)&#45;&gt;137127705871360</title>
<path fill="none" stroke="black" d="M181.1,-111.58C181.1,-97.79 181.1,-79.97 181.1,-75.73"/>
</g>
<!-- (0, 2) -->
<g id="node12" class="node">
<title>(0, 2)</title>
<ellipse fill="none" stroke="black" cx="137.1" cy="-18" rx="35.19" ry="18"/>
<text text-anchor="middle" x="137.1" y="-14.3" font-family="Times,serif" font-size="14.00">(0, 2)</text>
</g>
<!-- 137127705871360&#45;&gt;(0, 2) -->
<g id="edge10" class="edge">
<title>137127705871360&#45;&gt;(0, 2)</title>
<path fill="none" stroke="black" d="M180.33,-71.87C177.41,-68.3 166.61,-55.08 156.53,-42.76"/>
<polygon fill="black" stroke="black" points="159.15,-40.43 150.1,-34.91 153.73,-44.86 159.15,-40.43"/>
</g>
<!-- 137127705871280&#45;&gt;(0, 2) -->
<g id="edge13" class="edge">
<title>137127705871280&#45;&gt;(0, 2)</title>
<path fill="none" stroke="black" d="M93.86,-71.87C96.78,-68.3 107.59,-55.08 117.66,-42.76"/>
<polygon fill="black" stroke="black" points="120.47,-44.86 124.09,-34.91 115.05,-40.43 120.47,-44.86"/>
</g>
</g>
</svg>
